<svg xmlns="http://www.w3.org/2000/svg" viewBox="0 0 800 600" width="800" height="600">
  <defs>
    <linearGradient id="dg1" x1="0" x2="1">
      <stop offset="0" stop-color="#1E3A8A"/>
      <stop offset="1" stop-color="#6366F1"/>
    </linearGradient>
    <linearGradient id="dgbar" x1="0" x2="0" y1="1" y2="0">
      <stop offset="0" stop-color="#1E3A8A"/>
      <stop offset="1" stop-color="#14B8A6"/>
    </linearGradient>
  </defs>
  <rect width="800" height="600" fill="#F1F5F9"/>
  <!-- sidebar -->
  <rect x="0" y="0" width="160" height="600" fill="#0B1B3B"/>
  <rect x="24" y="32" width="40" height="14" rx="4" fill="#FFFFFF" opacity="0.9"/>
  <rect x="24" y="80" width="112" height="32" rx="8" fill="#14B8A6" opacity="0.25"/>
  <rect x="40" y="92" width="80" height="8" rx="4" fill="#FFFFFF"/>
  <rect x="24" y="124" width="112" height="32" rx="8" fill="transparent"/>
  <rect x="40" y="136" width="60" height="8" rx="4" fill="#FFFFFF" opacity="0.5"/>
  <rect x="24" y="168" width="112" height="32" rx="8" fill="transparent"/>
  <rect x="40" y="180" width="70" height="8" rx="4" fill="#FFFFFF" opacity="0.5"/>
  <rect x="24" y="212" width="112" height="32" rx="8" fill="transparent"/>
  <rect x="40" y="224" width="50" height="8" rx="4" fill="#FFFFFF" opacity="0.5"/>
  <!-- main top bar -->
  <rect x="160" y="0" width="640" height="60" fill="#FFFFFF"/>
  <rect x="190" y="22" width="120" height="16" rx="4" fill="#0B1B3B"/>
  <circle cx="760" cy="30" r="14" fill="url(#dg1)"/>
  <!-- KPI cards -->
  <g>
    <rect x="190" y="84" width="180" height="100" rx="14" fill="#FFFFFF"/>
    <rect x="210" y="100" width="60" height="8" rx="4" fill="#94A3B8"/>
    <rect x="210" y="120" width="100" height="22" rx="4" fill="url(#dg1)"/>
    <rect x="210" y="156" width="60" height="6" rx="3" fill="#86EFAC"/>
  </g>
  <g>
    <rect x="390" y="84" width="180" height="100" rx="14" fill="#FFFFFF"/>
    <rect x="410" y="100" width="60" height="8" rx="4" fill="#94A3B8"/>
    <rect x="410" y="120" width="80" height="22" rx="4" fill="url(#dg1)"/>
    <rect x="410" y="156" width="40" height="6" rx="3" fill="#FCA5A5"/>
  </g>
  <g>
    <rect x="590" y="84" width="180" height="100" rx="14" fill="#FFFFFF"/>
    <rect x="610" y="100" width="60" height="8" rx="4" fill="#94A3B8"/>
    <rect x="610" y="120" width="120" height="22" rx="4" fill="url(#dg1)"/>
    <rect x="610" y="156" width="80" height="6" rx="3" fill="#86EFAC"/>
  </g>
  <!-- main chart card -->
  <rect x="190" y="204" width="380" height="220" rx="14" fill="#FFFFFF"/>
  <rect x="210" y="222" width="120" height="10" rx="5" fill="#0B1B3B"/>
  <rect x="210" y="240" width="80" height="6" rx="3" fill="#94A3B8"/>
  <!-- bars -->
  <g>
    <rect x="210" y="320" width="32" height="80" rx="6" fill="url(#dgbar)"/>
    <rect x="252" y="280" width="32" height="120" rx="6" fill="url(#dgbar)" opacity="0.85"/>
    <rect x="294" y="340" width="32" height="60" rx="6" fill="url(#dgbar)" opacity="0.85"/>
    <rect x="336" y="270" width="32" height="130" rx="6" fill="url(#dgbar)"/>
    <rect x="378" y="300" width="32" height="100" rx="6" fill="url(#dgbar)" opacity="0.85"/>
    <rect x="420" y="240" width="32" height="160" rx="6" fill="url(#dgbar)"/>
    <rect x="462" y="290" width="32" height="110" rx="6" fill="url(#dgbar)" opacity="0.85"/>
    <rect x="504" y="260" width="32" height="140" rx="6" fill="url(#dgbar)"/>
  </g>
  <!-- side mini chart -->
  <rect x="590" y="204" width="180" height="220" rx="14" fill="#FFFFFF"/>
  <rect x="610" y="222" width="100" height="10" rx="5" fill="#0B1B3B"/>
  <circle cx="680" cy="320" r="60" fill="none" stroke="#E2E8F0" stroke-width="14"/>
  <path d="M 680 260 A 60 60 0 1 1 624 350" fill="none" stroke="url(#dg1)" stroke-width="14" stroke-linecap="round"/>
  <!-- bottom row -->
  <g>
    <rect x="190" y="444" width="580" height="120" rx="14" fill="#FFFFFF"/>
    <rect x="210" y="464" width="100" height="10" rx="5" fill="#0B1B3B"/>
    <rect x="210" y="494" width="540" height="10" rx="5" fill="#F1F5F9"/>
    <rect x="210" y="514" width="540" height="10" rx="5" fill="#F1F5F9"/>
    <rect x="210" y="534" width="380" height="10" rx="5" fill="#F1F5F9"/>
  </g>
</svg>
